<svg width="805" height="97" viewBox="0 0 805 97" fill="none" xmlns="http://www.w3.org/2000/svg">
<rect y="0.5" width="805" height="96" rx="16" fill="#E5FFDE"/>
<path d="M48.592 56.74C46.304 56.74 44.504 56.188 43.192 55.084C41.896 53.98 41.208 52.364 41.128 50.236C41.112 49.804 41.104 49.1 41.104 48.124C41.104 47.132 41.112 46.412 41.128 45.964C41.208 43.884 41.904 42.284 43.216 41.164C44.544 40.028 46.336 39.46 48.592 39.46C50.016 39.46 51.288 39.692 52.408 40.156C53.544 40.62 54.44 41.292 55.096 42.172C55.752 43.052 56.096 44.092 56.128 45.292C56.128 45.436 56.072 45.556 55.96 45.652C55.864 45.748 55.744 45.796 55.6 45.796H52.192C51.968 45.796 51.8 45.756 51.688 45.676C51.592 45.58 51.504 45.412 51.424 45.172C51.2 44.388 50.856 43.844 50.392 43.54C49.944 43.22 49.344 43.06 48.592 43.06C46.784 43.06 45.848 44.068 45.784 46.084C45.768 46.516 45.76 47.18 45.76 48.076C45.76 48.972 45.768 49.652 45.784 50.116C45.848 52.132 46.784 53.14 48.592 53.14C49.328 53.14 49.928 52.98 50.392 52.66C50.872 52.34 51.216 51.796 51.424 51.028C51.488 50.788 51.576 50.628 51.688 50.548C51.8 50.452 51.968 50.404 52.192 50.404H55.6C55.744 50.404 55.864 50.452 55.96 50.548C56.072 50.644 56.128 50.764 56.128 50.908C56.096 52.108 55.752 53.148 55.096 54.028C54.44 54.908 53.544 55.58 52.408 56.044C51.288 56.508 50.016 56.74 48.592 56.74ZM58.9133 56.5C58.7533 56.5 58.6093 56.444 58.4813 56.332C58.3693 56.204 58.3133 56.06 58.3133 55.9V44.62C58.3133 44.444 58.3693 44.3 58.4813 44.188C58.6093 44.076 58.7533 44.02 58.9133 44.02H70.0733C70.2493 44.02 70.3933 44.076 70.5053 44.188C70.6173 44.3 70.6733 44.444 70.6733 44.62V55.9C70.6733 56.06 70.6173 56.204 70.5053 56.332C70.3933 56.444 70.2493 56.5 70.0733 56.5H67.0733C66.9133 56.5 66.7693 56.444 66.6413 56.332C66.5293 56.204 66.4733 56.06 66.4733 55.9V47.284H62.5373V55.9C62.5373 56.076 62.4733 56.22 62.3453 56.332C62.2333 56.444 62.0893 56.5 61.9133 56.5H58.9133ZM77.2923 56.74C76.4443 56.74 75.6683 56.58 74.9643 56.26C74.2763 55.924 73.7323 55.468 73.3323 54.892C72.9483 54.316 72.7563 53.684 72.7563 52.996C72.7563 51.908 73.2043 51.028 74.1003 50.356C75.0123 49.668 76.2603 49.196 77.8443 48.94L80.8203 48.484V48.196C80.8203 47.604 80.7003 47.172 80.4603 46.9C80.2203 46.628 79.8123 46.492 79.2363 46.492C78.9163 46.492 78.6443 46.548 78.4203 46.66C78.2123 46.772 77.9723 46.94 77.7003 47.164C77.4923 47.34 77.3083 47.468 77.1483 47.548C77.0843 47.66 77.0043 47.716 76.9083 47.716H74.1243C73.9643 47.716 73.8283 47.668 73.7163 47.572C73.6203 47.46 73.5803 47.332 73.5963 47.188C73.6123 46.756 73.8283 46.276 74.2443 45.748C74.6603 45.204 75.2923 44.74 76.1403 44.356C76.9883 43.972 78.0363 43.78 79.2843 43.78C81.2683 43.78 82.7403 44.22 83.7003 45.1C84.6603 45.964 85.1403 47.14 85.1403 48.628V55.9C85.1403 56.06 85.0843 56.204 84.9723 56.332C84.8603 56.444 84.7163 56.5 84.5403 56.5H81.5883C81.4283 56.5 81.2843 56.444 81.1563 56.332C81.0443 56.204 80.9883 56.06 80.9883 55.9V55.06C80.6363 55.556 80.1483 55.964 79.5243 56.284C78.9003 56.588 78.1563 56.74 77.2923 56.74ZM78.4922 53.908C79.1963 53.908 79.7643 53.676 80.1963 53.212C80.6443 52.748 80.8683 52.076 80.8683 51.196V50.908L78.8763 51.244C77.5323 51.5 76.8603 51.98 76.8603 52.684C76.8603 53.052 77.0123 53.348 77.3163 53.572C77.6363 53.796 78.0283 53.908 78.4922 53.908ZM93.5588 56.74C91.7348 56.74 90.2548 56.26 89.1188 55.3C87.9988 54.324 87.3988 52.972 87.3188 51.244L87.2948 50.284L87.3188 49.3C87.3828 47.572 87.9828 46.22 89.1188 45.244C90.2548 44.268 91.7348 43.78 93.5588 43.78C94.9508 43.78 96.1188 44.028 97.0628 44.524C98.0068 45.02 98.7108 45.612 99.1748 46.3C99.6388 46.972 99.8868 47.588 99.9188 48.148C99.9348 48.324 99.8788 48.476 99.7508 48.604C99.6228 48.716 99.4708 48.772 99.2948 48.772H96.0788C95.9028 48.772 95.7668 48.732 95.6708 48.652C95.5748 48.572 95.4868 48.444 95.4068 48.268C95.2308 47.82 94.9988 47.492 94.7108 47.284C94.4388 47.076 94.0868 46.972 93.6548 46.972C92.4228 46.972 91.7828 47.788 91.7348 49.42L91.7108 50.332L91.7348 51.124C91.7508 51.956 91.9188 52.572 92.2388 52.972C92.5588 53.356 93.0308 53.548 93.6548 53.548C94.1188 53.548 94.4788 53.452 94.7348 53.26C95.0068 53.052 95.2308 52.716 95.4068 52.252C95.4868 52.076 95.5748 51.948 95.6708 51.868C95.7668 51.788 95.9028 51.748 96.0788 51.748H99.2948C99.4548 51.748 99.5988 51.804 99.7268 51.916C99.8548 52.028 99.9188 52.164 99.9188 52.324C99.9188 52.82 99.6948 53.42 99.2468 54.124C98.8148 54.812 98.1188 55.42 97.1588 55.948C96.1988 56.476 94.9988 56.74 93.5588 56.74ZM114.241 44.02C114.401 44.02 114.537 44.076 114.649 44.188C114.777 44.3 114.841 44.436 114.841 44.596V55.9C114.841 56.06 114.785 56.204 114.673 56.332C114.561 56.444 114.417 56.5 114.241 56.5H111.241C111.065 56.5 110.913 56.444 110.785 56.332C110.673 56.22 110.617 56.076 110.617 55.9V49.396L105.937 56.116C105.761 56.372 105.537 56.5 105.265 56.5H102.577C102.417 56.5 102.273 56.444 102.145 56.332C102.033 56.204 101.977 56.06 101.977 55.9V44.62C101.977 44.444 102.033 44.3 102.145 44.188C102.273 44.076 102.417 44.02 102.577 44.02H105.577C105.753 44.02 105.897 44.076 106.009 44.188C106.137 44.3 106.201 44.444 106.201 44.62V51.124L110.881 44.404C111.057 44.148 111.281 44.02 111.553 44.02H114.241ZM129.832 49.972C129.864 50.356 129.88 50.66 129.88 50.884C129.88 51.092 129.864 51.372 129.832 51.724C129.736 53.324 129.144 54.564 128.056 55.444C126.984 56.308 125.44 56.74 123.424 56.74C121.248 56.74 119.656 56.22 118.648 55.18C117.656 54.14 117.104 52.484 116.992 50.212L116.968 48.748L116.992 47.308C117.072 45.116 117.448 43.46 118.12 42.34C118.808 41.22 119.824 40.38 121.168 39.82C122.528 39.26 124.648 38.66 127.528 38.02C127.688 37.988 127.84 38.02 127.984 38.116C128.128 38.196 128.208 38.324 128.224 38.5L128.656 40.828C128.688 41.004 128.664 41.164 128.584 41.308C128.504 41.436 128.384 41.516 128.224 41.548C126.128 41.948 124.64 42.284 123.76 42.556C122.896 42.828 122.248 43.228 121.816 43.756C121.4 44.268 121.152 45.068 121.072 46.156C121.44 45.804 121.904 45.516 122.464 45.292C123.024 45.068 123.608 44.956 124.216 44.956C125.96 44.956 127.304 45.396 128.248 46.276C129.208 47.156 129.736 48.388 129.832 49.972ZM125.44 51.628C125.456 51.5 125.464 51.252 125.464 50.884C125.464 50.484 125.456 50.212 125.44 50.068C125.36 48.5 124.736 47.716 123.568 47.716C122.208 47.716 121.488 48.5 121.408 50.068L121.384 50.884L121.408 51.628C121.44 52.428 121.616 53.028 121.936 53.428C122.272 53.812 122.768 54.004 123.424 54.004C124.08 54.004 124.568 53.812 124.888 53.428C125.224 53.028 125.408 52.428 125.44 51.628ZM138.165 56.74C136.149 56.74 134.597 56.276 133.509 55.348C132.437 54.404 131.853 53.068 131.757 51.34C131.741 51.132 131.733 50.772 131.733 50.26C131.733 49.748 131.741 49.388 131.757 49.18C131.853 47.484 132.453 46.164 133.557 45.22C134.677 44.26 136.213 43.78 138.165 43.78C140.117 43.78 141.645 44.26 142.749 45.22C143.869 46.164 144.477 47.484 144.573 49.18C144.605 49.596 144.621 49.956 144.621 50.26C144.621 50.564 144.605 50.924 144.573 51.34C144.477 53.068 143.885 54.404 142.797 55.348C141.725 56.276 140.181 56.74 138.165 56.74ZM138.165 53.716C138.821 53.716 139.309 53.516 139.629 53.116C139.949 52.7 140.133 52.068 140.181 51.22C140.197 51.06 140.205 50.74 140.205 50.26C140.205 49.78 140.197 49.46 140.181 49.3C140.133 48.468 139.949 47.844 139.629 47.428C139.309 47.012 138.821 46.804 138.165 46.804C137.509 46.804 137.021 47.012 136.701 47.428C136.381 47.844 136.197 48.468 136.149 49.3L136.125 50.26L136.149 51.22C136.197 52.068 136.381 52.7 136.701 53.116C137.021 53.516 137.509 53.716 138.165 53.716ZM157.274 56.74C155.882 56.74 154.762 56.548 153.914 56.164C153.066 55.764 152.45 55.292 152.066 54.748C151.698 54.188 151.482 53.628 151.418 53.068V53.02C151.418 52.924 151.466 52.836 151.562 52.756C151.658 52.676 151.754 52.636 151.85 52.636H154.778C154.954 52.636 155.082 52.668 155.162 52.732C155.258 52.78 155.346 52.868 155.426 52.996C155.554 53.284 155.77 53.5 156.074 53.644C156.378 53.772 156.794 53.836 157.322 53.836C157.866 53.836 158.282 53.74 158.57 53.548C158.874 53.34 159.026 53.028 159.026 52.612C159.026 52.228 158.906 51.94 158.666 51.748C158.442 51.54 158.058 51.436 157.514 51.436H156.17C156.026 51.436 155.898 51.388 155.786 51.292C155.69 51.18 155.642 51.052 155.642 50.908V49.468C155.642 49.324 155.69 49.204 155.786 49.108C155.882 48.996 156.01 48.94 156.17 48.94H157.442C157.922 48.94 158.266 48.86 158.474 48.7C158.698 48.524 158.81 48.26 158.81 47.908C158.81 47.556 158.682 47.268 158.426 47.044C158.17 46.82 157.77 46.708 157.226 46.708C156.698 46.708 156.306 46.78 156.05 46.924C155.81 47.068 155.61 47.308 155.45 47.644C155.37 47.772 155.282 47.868 155.186 47.932C155.106 47.98 154.978 48.004 154.802 48.004H151.97C151.842 48.004 151.73 47.964 151.634 47.884C151.554 47.788 151.522 47.684 151.538 47.572C151.602 46.964 151.826 46.372 152.21 45.796C152.594 45.22 153.202 44.74 154.034 44.356C154.866 43.972 155.946 43.78 157.274 43.78C159.21 43.78 160.626 44.108 161.522 44.764C162.418 45.42 162.866 46.276 162.866 47.332C162.866 48.564 162.346 49.428 161.306 49.924C162.554 50.372 163.194 51.388 163.226 52.972C163.226 54.124 162.69 55.044 161.618 55.732C160.562 56.404 159.114 56.74 157.274 56.74ZM169.238 56.74C168.39 56.74 167.614 56.58 166.91 56.26C166.222 55.924 165.678 55.468 165.278 54.892C164.894 54.316 164.702 53.684 164.702 52.996C164.702 51.908 165.15 51.028 166.046 50.356C166.958 49.668 168.206 49.196 169.79 48.94L172.766 48.484V48.196C172.766 47.604 172.646 47.172 172.406 46.9C172.166 46.628 171.758 46.492 171.182 46.492C170.862 46.492 170.59 46.548 170.366 46.66C170.158 46.772 169.918 46.94 169.646 47.164C169.438 47.34 169.254 47.468 169.094 47.548C169.03 47.66 168.95 47.716 168.854 47.716H166.07C165.91 47.716 165.774 47.668 165.662 47.572C165.566 47.46 165.526 47.332 165.542 47.188C165.558 46.756 165.774 46.276 166.19 45.748C166.606 45.204 167.238 44.74 168.086 44.356C168.934 43.972 169.982 43.78 171.23 43.78C173.214 43.78 174.686 44.22 175.646 45.1C176.606 45.964 177.086 47.14 177.086 48.628V55.9C177.086 56.06 177.03 56.204 176.918 56.332C176.806 56.444 176.662 56.5 176.486 56.5H173.534C173.374 56.5 173.23 56.444 173.102 56.332C172.99 56.204 172.934 56.06 172.934 55.9V55.06C172.582 55.556 172.094 55.964 171.47 56.284C170.846 56.588 170.102 56.74 169.238 56.74ZM170.438 53.908C171.142 53.908 171.71 53.676 172.142 53.212C172.59 52.748 172.814 52.076 172.814 51.196V50.908L170.822 51.244C169.478 51.5 168.806 51.98 168.806 52.684C168.806 53.052 168.958 53.348 169.262 53.572C169.582 53.796 169.974 53.908 170.438 53.908ZM188.527 56.5C188.351 56.5 188.199 56.444 188.071 56.332C187.959 56.22 187.903 56.076 187.903 55.9V47.284H184.327C184.151 47.284 183.999 47.228 183.871 47.116C183.759 47.004 183.703 46.86 183.703 46.684V44.62C183.703 44.444 183.759 44.3 183.871 44.188C183.999 44.076 184.151 44.02 184.327 44.02H195.655C195.831 44.02 195.975 44.076 196.087 44.188C196.199 44.3 196.255 44.444 196.255 44.62V46.684C196.255 46.844 196.199 46.988 196.087 47.116C195.975 47.228 195.831 47.284 195.655 47.284H192.055V55.9C192.055 56.06 191.999 56.204 191.887 56.332C191.775 56.444 191.631 56.5 191.455 56.5H188.527ZM203.977 56.74C201.961 56.74 200.409 56.276 199.321 55.348C198.249 54.404 197.665 53.068 197.569 51.34C197.553 51.132 197.545 50.772 197.545 50.26C197.545 49.748 197.553 49.388 197.569 49.18C197.665 47.484 198.265 46.164 199.369 45.22C200.489 44.26 202.025 43.78 203.977 43.78C205.929 43.78 207.457 44.26 208.561 45.22C209.681 46.164 210.289 47.484 210.385 49.18C210.417 49.596 210.433 49.956 210.433 50.26C210.433 50.564 210.417 50.924 210.385 51.34C210.289 53.068 209.697 54.404 208.609 55.348C207.537 56.276 205.993 56.74 203.977 56.74ZM203.977 53.716C204.633 53.716 205.121 53.516 205.441 53.116C205.761 52.7 205.945 52.068 205.993 51.22C206.009 51.06 206.017 50.74 206.017 50.26C206.017 49.78 206.009 49.46 205.993 49.3C205.945 48.468 205.761 47.844 205.441 47.428C205.121 47.012 204.633 46.804 203.977 46.804C203.321 46.804 202.833 47.012 202.513 47.428C202.193 47.844 202.009 48.468 201.961 49.3L201.937 50.26L201.961 51.22C202.009 52.068 202.193 52.7 202.513 53.116C202.833 53.516 203.321 53.716 203.977 53.716ZM212.482 58.3C212.338 58.3 212.218 58.244 212.122 58.132C212.042 58.036 212.01 57.916 212.026 57.772L212.77 52.948C212.802 52.724 212.89 52.532 213.034 52.372C213.178 52.196 213.386 52.108 213.658 52.108H216.562C216.69 52.108 216.802 52.156 216.898 52.252C216.994 52.348 217.042 52.46 217.042 52.588C217.042 52.684 217.026 52.772 216.994 52.852L215.122 57.628C214.946 58.076 214.65 58.3 214.234 58.3H212.482ZM232.359 56.5C232.183 56.5 232.031 56.444 231.903 56.332C231.791 56.22 231.735 56.076 231.735 55.9V52.324C231.015 52.9 229.943 53.188 228.519 53.188C226.967 53.188 225.791 52.796 224.991 52.012C224.207 51.212 223.815 49.964 223.815 48.268V44.62C223.815 44.444 223.871 44.3 223.983 44.188C224.111 44.076 224.255 44.02 224.415 44.02H227.535C227.711 44.02 227.855 44.076 227.967 44.188C228.079 44.3 228.135 44.444 228.135 44.62V48.052C228.135 48.596 228.263 48.98 228.519 49.204C228.775 49.428 229.207 49.54 229.815 49.54C230.407 49.54 230.871 49.452 231.207 49.276C231.559 49.084 231.735 48.812 231.735 48.46V44.62C231.735 44.444 231.791 44.3 231.903 44.188C232.031 44.076 232.183 44.02 232.359 44.02H235.599C235.775 44.02 235.919 44.076 236.031 44.188C236.159 44.3 236.223 44.444 236.223 44.62V55.9C236.223 56.076 236.159 56.22 236.031 56.332C235.919 56.444 235.775 56.5 235.599 56.5H232.359ZM242.855 56.5C242.679 56.5 242.527 56.444 242.399 56.332C242.287 56.22 242.231 56.076 242.231 55.9V47.284H238.655C238.479 47.284 238.327 47.228 238.199 47.116C238.087 47.004 238.031 46.86 238.031 46.684V44.62C238.031 44.444 238.087 44.3 238.199 44.188C238.327 44.076 238.479 44.02 238.655 44.02H249.983C250.159 44.02 250.303 44.076 250.415 44.188C250.527 44.3 250.583 44.444 250.583 44.62V46.684C250.583 46.844 250.527 46.988 250.415 47.116C250.303 47.228 250.159 47.284 249.983 47.284H246.383V55.9C246.383 56.06 246.327 56.204 246.215 56.332C246.103 56.444 245.959 56.5 245.783 56.5H242.855ZM258.306 56.74C256.29 56.74 254.738 56.276 253.65 55.348C252.578 54.404 251.994 53.068 251.898 51.34C251.882 51.132 251.874 50.772 251.874 50.26C251.874 49.748 251.882 49.388 251.898 49.18C251.994 47.484 252.594 46.164 253.698 45.22C254.818 44.26 256.354 43.78 258.306 43.78C260.258 43.78 261.786 44.26 262.89 45.22C264.01 46.164 264.618 47.484 264.714 49.18C264.746 49.596 264.762 49.956 264.762 50.26C264.762 50.564 264.746 50.924 264.714 51.34C264.618 53.068 264.026 54.404 262.938 55.348C261.866 56.276 260.322 56.74 258.306 56.74ZM258.306 53.716C258.962 53.716 259.45 53.516 259.77 53.116C260.09 52.7 260.274 52.068 260.322 51.22C260.338 51.06 260.346 50.74 260.346 50.26C260.346 49.78 260.338 49.46 260.322 49.3C260.274 48.468 260.09 47.844 259.77 47.428C259.45 47.012 258.962 46.804 258.306 46.804C257.65 46.804 257.162 47.012 256.842 47.428C256.522 47.844 256.338 48.468 256.29 49.3L256.266 50.26L256.29 51.22C256.338 52.068 256.522 52.7 256.842 53.116C257.162 53.516 257.65 53.716 258.306 53.716ZM272.687 56.5C272.527 56.5 272.383 56.444 272.255 56.332C272.143 56.204 272.087 56.06 272.087 55.9V44.62C272.087 44.444 272.143 44.3 272.255 44.188C272.383 44.076 272.527 44.02 272.687 44.02H278.375C280.247 44.02 281.639 44.332 282.551 44.956C283.479 45.58 283.943 46.46 283.943 47.596C283.943 48.156 283.831 48.636 283.607 49.036C283.383 49.42 283.063 49.756 282.647 50.044C283.175 50.316 283.583 50.692 283.871 51.172C284.175 51.636 284.327 52.18 284.327 52.804C284.327 53.972 283.863 54.884 282.935 55.54C282.007 56.18 280.607 56.5 278.735 56.5H272.687ZM278.471 48.868C279.495 48.868 280.007 48.484 280.007 47.716C280.007 47.332 279.871 47.068 279.599 46.924C279.343 46.764 278.967 46.684 278.471 46.684H276.167V48.868H278.471ZM278.519 53.836C279.559 53.836 280.079 53.476 280.079 52.756C280.079 52.356 279.951 52.068 279.695 51.892C279.439 51.716 279.047 51.628 278.519 51.628H276.167V53.836H278.519ZM287.335 56.5C287.175 56.5 287.031 56.444 286.903 56.332C286.791 56.204 286.735 56.06 286.735 55.9V44.62C286.735 44.444 286.791 44.3 286.903 44.188C287.031 44.076 287.175 44.02 287.335 44.02H290.359C290.535 44.02 290.679 44.076 290.791 44.188C290.903 44.3 290.959 44.444 290.959 44.62V47.836H293.119C294.719 47.836 295.967 48.228 296.863 49.012C297.775 49.78 298.231 50.844 298.231 52.204C298.231 53.596 297.767 54.66 296.839 55.396C295.927 56.132 294.647 56.5 292.999 56.5H287.335ZM300.271 56.5C300.111 56.5 299.967 56.444 299.839 56.332C299.727 56.204 299.671 56.06 299.671 55.9V44.62C299.671 44.444 299.727 44.3 299.839 44.188C299.967 44.076 300.111 44.02 300.271 44.02H303.271C303.447 44.02 303.591 44.076 303.703 44.188C303.831 44.3 303.895 44.444 303.895 44.62V55.9C303.895 56.076 303.831 56.22 303.703 56.332C303.591 56.444 303.447 56.5 303.271 56.5H300.271ZM292.759 53.644C293.351 53.644 293.783 53.532 294.055 53.308C294.327 53.084 294.463 52.716 294.463 52.204C294.463 51.692 294.327 51.308 294.055 51.052C293.783 50.796 293.351 50.668 292.759 50.668H290.887V53.644H292.759ZM317.598 56.74C315.774 56.74 314.294 56.26 313.158 55.3C312.038 54.324 311.438 52.972 311.358 51.244L311.334 50.284L311.358 49.3C311.422 47.572 312.022 46.22 313.158 45.244C314.294 44.268 315.774 43.78 317.598 43.78C318.99 43.78 320.158 44.028 321.102 44.524C322.046 45.02 322.75 45.612 323.214 46.3C323.678 46.972 323.926 47.588 323.958 48.148C323.974 48.324 323.918 48.476 323.79 48.604C323.662 48.716 323.51 48.772 323.334 48.772H320.118C319.942 48.772 319.806 48.732 319.71 48.652C319.614 48.572 319.526 48.444 319.446 48.268C319.27 47.82 319.038 47.492 318.75 47.284C318.478 47.076 318.126 46.972 317.694 46.972C316.462 46.972 315.822 47.788 315.774 49.42L315.75 50.332L315.774 51.124C315.79 51.956 315.958 52.572 316.278 52.972C316.598 53.356 317.07 53.548 317.694 53.548C318.158 53.548 318.518 53.452 318.774 53.26C319.046 53.052 319.27 52.716 319.446 52.252C319.526 52.076 319.614 51.948 319.71 51.868C319.806 51.788 319.942 51.748 320.118 51.748H323.334C323.494 51.748 323.638 51.804 323.766 51.916C323.894 52.028 323.958 52.164 323.958 52.324C323.958 52.82 323.734 53.42 323.286 54.124C322.854 54.812 322.158 55.42 321.198 55.948C320.238 56.476 319.038 56.74 317.598 56.74ZM331.656 56.5C331.496 56.5 331.352 56.444 331.224 56.332C331.112 56.204 331.056 56.06 331.056 55.9V44.62C331.056 44.444 331.112 44.3 331.224 44.188C331.352 44.076 331.496 44.02 331.656 44.02H334.656C334.832 44.02 334.976 44.076 335.088 44.188C335.216 44.3 335.28 44.444 335.28 44.62V48.532H339.36V44.62C339.36 44.444 339.416 44.3 339.528 44.188C339.656 44.076 339.808 44.02 339.984 44.02H342.984C343.16 44.02 343.304 44.076 343.416 44.188C343.528 44.3 343.584 44.444 343.584 44.62V55.9C343.584 56.06 343.528 56.204 343.416 56.332C343.304 56.444 343.16 56.5 342.984 56.5H339.984C339.808 56.5 339.656 56.444 339.528 56.332C339.416 56.22 339.36 56.076 339.36 55.9V51.796H335.28V55.9C335.28 56.076 335.216 56.22 335.088 56.332C334.976 56.444 334.832 56.5 334.656 56.5H331.656ZM350.199 56.74C349.351 56.74 348.575 56.58 347.871 56.26C347.183 55.924 346.639 55.468 346.239 54.892C345.855 54.316 345.663 53.684 345.663 52.996C345.663 51.908 346.111 51.028 347.007 50.356C347.919 49.668 349.167 49.196 350.751 48.94L353.727 48.484V48.196C353.727 47.604 353.607 47.172 353.367 46.9C353.127 46.628 352.719 46.492 352.143 46.492C351.823 46.492 351.551 46.548 351.327 46.66C351.119 46.772 350.879 46.94 350.607 47.164C350.399 47.34 350.215 47.468 350.055 47.548C349.991 47.66 349.911 47.716 349.815 47.716H347.031C346.871 47.716 346.735 47.668 346.623 47.572C346.527 47.46 346.487 47.332 346.503 47.188C346.519 46.756 346.735 46.276 347.151 45.748C347.567 45.204 348.199 44.74 349.047 44.356C349.895 43.972 350.943 43.78 352.191 43.78C354.175 43.78 355.647 44.22 356.607 45.1C357.567 45.964 358.047 47.14 358.047 48.628V55.9C358.047 56.06 357.991 56.204 357.879 56.332C357.767 56.444 357.623 56.5 357.447 56.5H354.495C354.335 56.5 354.191 56.444 354.063 56.332C353.951 56.204 353.895 56.06 353.895 55.9V55.06C353.543 55.556 353.055 55.964 352.431 56.284C351.807 56.588 351.063 56.74 350.199 56.74ZM351.398 53.908C352.103 53.908 352.671 53.676 353.103 53.212C353.551 52.748 353.775 52.076 353.775 51.196V50.908L351.783 51.244C350.439 51.5 349.767 51.98 349.767 52.684C349.767 53.052 349.919 53.348 350.223 53.572C350.543 53.796 350.935 53.908 351.398 53.908ZM374.793 44.02C374.921 44.02 375.033 44.068 375.129 44.164C375.225 44.26 375.273 44.372 375.273 44.5V55.996C375.273 56.14 375.225 56.26 375.129 56.356C375.033 56.452 374.913 56.5 374.769 56.5H371.625C371.481 56.5 371.361 56.452 371.265 56.356C371.169 56.26 371.121 56.14 371.121 55.996V50.692L369.153 54.124C369.057 54.3 368.953 54.436 368.841 54.532C368.745 54.612 368.617 54.652 368.457 54.652H367.473C367.185 54.652 366.945 54.476 366.753 54.124L364.785 50.716V55.996C364.785 56.14 364.737 56.26 364.641 56.356C364.545 56.452 364.433 56.5 364.305 56.5H361.161C361.017 56.5 360.897 56.452 360.801 56.356C360.705 56.26 360.657 56.14 360.657 55.996V44.5C360.657 44.372 360.705 44.26 360.801 44.164C360.897 44.068 361.009 44.02 361.137 44.02H364.065C364.353 44.02 364.585 44.164 364.761 44.452L367.953 50.116L371.169 44.452C371.345 44.164 371.577 44.02 371.865 44.02H374.793ZM390.382 44.02C390.542 44.02 390.678 44.076 390.79 44.188C390.918 44.3 390.982 44.436 390.982 44.596V55.9C390.982 56.06 390.926 56.204 390.814 56.332C390.702 56.444 390.558 56.5 390.382 56.5H387.382C387.206 56.5 387.054 56.444 386.926 56.332C386.814 56.22 386.758 56.076 386.758 55.9V49.396L382.078 56.116C381.902 56.372 381.678 56.5 381.406 56.5H378.718C378.558 56.5 378.414 56.444 378.286 56.332C378.174 56.204 378.118 56.06 378.118 55.9V44.62C378.118 44.444 378.174 44.3 378.286 44.188C378.414 44.076 378.558 44.02 378.718 44.02H381.718C381.894 44.02 382.038 44.076 382.15 44.188C382.278 44.3 382.342 44.444 382.342 44.62V51.124L387.022 44.404C387.198 44.148 387.422 44.02 387.694 44.02H390.382ZM393.997 56.5C393.821 56.5 393.669 56.444 393.541 56.332C393.429 56.22 393.373 56.076 393.373 55.9V52.732C393.373 52.556 393.429 52.412 393.541 52.3C393.669 52.172 393.821 52.108 393.997 52.108H397.165C397.341 52.108 397.485 52.172 397.597 52.3C397.709 52.412 397.765 52.556 397.765 52.732V55.9C397.765 56.06 397.709 56.204 397.597 56.332C397.485 56.444 397.341 56.5 397.165 56.5H393.997ZM412.647 56.74C410.359 56.74 408.559 56.188 407.247 55.084C405.951 53.98 405.263 52.364 405.183 50.236C405.167 49.804 405.159 49.1 405.159 48.124C405.159 47.132 405.167 46.412 405.183 45.964C405.263 43.884 405.959 42.284 407.271 41.164C408.599 40.028 410.391 39.46 412.647 39.46C414.071 39.46 415.343 39.692 416.463 40.156C417.599 40.62 418.495 41.292 419.151 42.172C419.807 43.052 420.151 44.092 420.183 45.292C420.183 45.436 420.127 45.556 420.015 45.652C419.919 45.748 419.799 45.796 419.655 45.796H416.247C416.023 45.796 415.855 45.756 415.743 45.676C415.647 45.58 415.559 45.412 415.479 45.172C415.255 44.388 414.911 43.844 414.447 43.54C413.999 43.22 413.399 43.06 412.647 43.06C410.839 43.06 409.903 44.068 409.839 46.084C409.823 46.516 409.815 47.18 409.815 48.076C409.815 48.972 409.823 49.652 409.839 50.116C409.903 52.132 410.839 53.14 412.647 53.14C413.383 53.14 413.983 52.98 414.447 52.66C414.927 52.34 415.271 51.796 415.479 51.028C415.543 50.788 415.631 50.628 415.743 50.548C415.855 50.452 416.023 50.404 416.247 50.404H419.655C419.799 50.404 419.919 50.452 420.015 50.548C420.127 50.644 420.183 50.764 420.183 50.908C420.151 52.108 419.807 53.148 419.151 54.028C418.495 54.908 417.599 55.58 416.463 56.044C415.343 56.508 414.071 56.74 412.647 56.74ZM428.224 56.74C426.272 56.74 424.736 56.22 423.616 55.18C422.496 54.124 421.92 52.596 421.888 50.596V49.852C421.952 47.948 422.544 46.46 423.664 45.388C424.784 44.316 426.296 43.78 428.2 43.78C429.576 43.78 430.736 44.06 431.68 44.62C432.64 45.164 433.352 45.924 433.816 46.9C434.296 47.86 434.536 48.956 434.536 50.188V50.788C434.536 50.964 434.472 51.116 434.344 51.244C434.232 51.356 434.088 51.412 433.912 51.412H426.304V51.556C426.32 52.276 426.488 52.86 426.808 53.308C427.128 53.74 427.584 53.956 428.176 53.956C428.56 53.956 428.864 53.884 429.088 53.74C429.328 53.58 429.552 53.38 429.76 53.14C429.904 52.98 430.016 52.884 430.096 52.852C430.192 52.804 430.336 52.78 430.528 52.78H433.672C433.816 52.78 433.936 52.828 434.032 52.924C434.144 53.004 434.2 53.108 434.2 53.236C434.2 53.652 433.96 54.14 433.48 54.7C433.016 55.26 432.328 55.74 431.416 56.14C430.52 56.54 429.456 56.74 428.224 56.74ZM430.12 48.964V48.916C430.12 48.148 429.952 47.556 429.616 47.14C429.28 46.708 428.808 46.492 428.2 46.492C427.592 46.492 427.12 46.708 426.784 47.14C426.464 47.556 426.304 48.148 426.304 48.916V48.964H430.12ZM437.288 56.5C437.128 56.5 436.984 56.444 436.856 56.332C436.744 56.204 436.688 56.06 436.688 55.9V44.62C436.688 44.444 436.744 44.3 436.856 44.188C436.984 44.076 437.128 44.02 437.288 44.02H442.976C444.848 44.02 446.24 44.332 447.152 44.956C448.08 45.58 448.544 46.46 448.544 47.596C448.544 48.156 448.432 48.636 448.208 49.036C447.984 49.42 447.664 49.756 447.248 50.044C447.776 50.316 448.184 50.692 448.472 51.172C448.776 51.636 448.928 52.18 448.928 52.804C448.928 53.972 448.464 54.884 447.536 55.54C446.608 56.18 445.208 56.5 443.336 56.5H437.288ZM443.072 48.868C444.096 48.868 444.608 48.484 444.608 47.716C444.608 47.332 444.472 47.068 444.2 46.924C443.944 46.764 443.568 46.684 443.072 46.684H440.768V48.868H443.072ZM443.12 53.836C444.16 53.836 444.68 53.476 444.68 52.756C444.68 52.356 444.552 52.068 444.296 51.892C444.04 51.716 443.648 51.628 443.12 51.628H440.768V53.836H443.12ZM457.193 56.74C455.241 56.74 453.705 56.22 452.585 55.18C451.465 54.124 450.889 52.596 450.857 50.596V49.852C450.921 47.948 451.513 46.46 452.633 45.388C453.753 44.316 455.265 43.78 457.169 43.78C458.545 43.78 459.705 44.06 460.649 44.62C461.609 45.164 462.321 45.924 462.785 46.9C463.265 47.86 463.505 48.956 463.505 50.188V50.788C463.505 50.964 463.441 51.116 463.313 51.244C463.201 51.356 463.057 51.412 462.881 51.412H455.273V51.556C455.289 52.276 455.457 52.86 455.777 53.308C456.097 53.74 456.553 53.956 457.145 53.956C457.529 53.956 457.833 53.884 458.057 53.74C458.297 53.58 458.521 53.38 458.729 53.14C458.873 52.98 458.985 52.884 459.065 52.852C459.161 52.804 459.305 52.78 459.497 52.78H462.641C462.785 52.78 462.905 52.828 463.001 52.924C463.113 53.004 463.169 53.108 463.169 53.236C463.169 53.652 462.929 54.14 462.449 54.7C461.985 55.26 461.297 55.74 460.385 56.14C459.489 56.54 458.425 56.74 457.193 56.74ZM459.089 48.964V48.916C459.089 48.148 458.921 47.556 458.585 47.14C458.249 46.708 457.777 46.492 457.169 46.492C456.561 46.492 456.089 46.708 455.753 47.14C455.433 47.556 455.273 48.148 455.273 48.916V48.964H459.089ZM466.281 61.06C466.105 61.06 465.953 61.004 465.825 60.892C465.713 60.78 465.657 60.636 465.657 60.46V44.62C465.657 44.444 465.713 44.3 465.825 44.188C465.953 44.076 466.105 44.02 466.281 44.02H469.137C469.313 44.02 469.457 44.076 469.569 44.188C469.681 44.3 469.737 44.444 469.737 44.62V45.484C470.601 44.348 471.841 43.78 473.457 43.78C475.009 43.78 476.225 44.268 477.105 45.244C478.001 46.204 478.481 47.58 478.545 49.372C478.561 49.58 478.569 49.876 478.569 50.26C478.569 50.644 478.561 50.948 478.545 51.172C478.481 52.9 478.001 54.26 477.105 55.252C476.209 56.244 474.993 56.74 473.457 56.74C471.905 56.74 470.745 56.212 469.977 55.156V60.46C469.977 60.636 469.921 60.78 469.809 60.892C469.697 61.004 469.553 61.06 469.377 61.06H466.281ZM472.065 53.404C472.785 53.404 473.297 53.196 473.601 52.78C473.921 52.348 474.105 51.756 474.153 51.004C474.169 50.844 474.177 50.596 474.177 50.26C474.177 49.924 474.169 49.676 474.153 49.516C474.105 48.764 473.921 48.18 473.601 47.764C473.297 47.332 472.785 47.116 472.065 47.116C471.377 47.116 470.865 47.34 470.529 47.788C470.193 48.22 470.009 48.772 469.977 49.444C469.961 49.652 469.953 49.956 469.953 50.356C469.953 50.74 469.961 51.036 469.977 51.244C470.009 51.868 470.193 52.388 470.529 52.804C470.881 53.204 471.393 53.404 472.065 53.404ZM492.052 44.02C492.228 44.02 492.372 44.076 492.484 44.188C492.596 44.3 492.652 44.444 492.652 44.62V55.9C492.652 56.06 492.596 56.204 492.484 56.332C492.372 56.444 492.228 56.5 492.052 56.5H488.956C488.78 56.5 488.628 56.444 488.5 56.332C488.388 56.22 488.332 56.076 488.332 55.9V52.54H486.7L484.756 56.14C484.644 56.38 484.46 56.5 484.204 56.5H481.18C481.02 56.5 480.892 56.452 480.796 56.356C480.7 56.26 480.652 56.148 480.652 56.02C480.652 55.892 480.692 55.78 480.772 55.684L483.148 51.748C482.476 51.396 481.964 50.924 481.612 50.332C481.26 49.74 481.084 49.044 481.084 48.244C481.084 46.884 481.532 45.844 482.428 45.124C483.34 44.388 484.604 44.02 486.22 44.02H492.052ZM488.428 46.876H486.46C485.9 46.876 485.484 46.988 485.212 47.212C484.956 47.42 484.828 47.764 484.828 48.244C484.828 48.692 484.956 49.044 485.212 49.3C485.484 49.556 485.876 49.684 486.388 49.684H488.428V46.876ZM496.116 56.5C495.956 56.5 495.812 56.444 495.684 56.332C495.572 56.204 495.516 56.06 495.516 55.9V44.62C495.516 44.444 495.572 44.3 495.684 44.188C495.812 44.076 495.956 44.02 496.116 44.02H499.116C499.292 44.02 499.436 44.076 499.548 44.188C499.676 44.3 499.74 44.444 499.74 44.62V48.532H503.82V44.62C503.82 44.444 503.876 44.3 503.988 44.188C504.116 44.076 504.268 44.02 504.444 44.02H507.444C507.62 44.02 507.764 44.076 507.876 44.188C507.988 44.3 508.044 44.444 508.044 44.62V55.9C508.044 56.06 507.988 56.204 507.876 56.332C507.764 56.444 507.62 56.5 507.444 56.5H504.444C504.268 56.5 504.116 56.444 503.988 56.332C503.876 56.22 503.82 56.076 503.82 55.9V51.796H499.74V55.9C499.74 56.076 499.676 56.22 499.548 56.332C499.436 56.444 499.292 56.5 499.116 56.5H496.116ZM516.891 56.74C514.875 56.74 513.323 56.276 512.235 55.348C511.163 54.404 510.579 53.068 510.483 51.34C510.467 51.132 510.459 50.772 510.459 50.26C510.459 49.748 510.467 49.388 510.483 49.18C510.579 47.484 511.179 46.164 512.283 45.22C513.403 44.26 514.939 43.78 516.891 43.78C518.843 43.78 520.371 44.26 521.475 45.22C522.595 46.164 523.203 47.484 523.299 49.18C523.331 49.596 523.347 49.956 523.347 50.26C523.347 50.564 523.331 50.924 523.299 51.34C523.203 53.068 522.611 54.404 521.523 55.348C520.451 56.276 518.907 56.74 516.891 56.74ZM516.891 53.716C517.547 53.716 518.035 53.516 518.355 53.116C518.675 52.7 518.859 52.068 518.907 51.22C518.923 51.06 518.931 50.74 518.931 50.26C518.931 49.78 518.923 49.46 518.907 49.3C518.859 48.468 518.675 47.844 518.355 47.428C518.035 47.012 517.547 46.804 516.891 46.804C516.235 46.804 515.747 47.012 515.427 47.428C515.107 47.844 514.923 48.468 514.875 49.3L514.851 50.26L514.875 51.22C514.923 52.068 515.107 52.7 515.427 53.116C515.747 53.516 516.235 53.716 516.891 53.716ZM533.578 56.5C533.402 56.5 533.25 56.444 533.122 56.332C533.01 56.22 532.954 56.076 532.954 55.9V52.324C532.234 52.9 531.162 53.188 529.738 53.188C528.186 53.188 527.01 52.796 526.21 52.012C525.426 51.212 525.034 49.964 525.034 48.268V44.62C525.034 44.444 525.09 44.3 525.202 44.188C525.33 44.076 525.474 44.02 525.634 44.02H528.754C528.93 44.02 529.074 44.076 529.186 44.188C529.298 44.3 529.354 44.444 529.354 44.62V48.052C529.354 48.596 529.482 48.98 529.738 49.204C529.994 49.428 530.426 49.54 531.034 49.54C531.626 49.54 532.09 49.452 532.426 49.276C532.778 49.084 532.954 48.812 532.954 48.46V44.62C532.954 44.444 533.01 44.3 533.122 44.188C533.25 44.076 533.402 44.02 533.578 44.02H536.818C536.994 44.02 537.138 44.076 537.25 44.188C537.378 44.3 537.442 44.444 537.442 44.62V55.9C537.442 56.076 537.378 56.22 537.25 56.332C537.138 56.444 536.994 56.5 536.818 56.5H533.578ZM553.074 55.684C553.138 55.764 553.17 55.868 553.17 55.996C553.17 56.14 553.122 56.26 553.026 56.356C552.93 56.452 552.802 56.5 552.642 56.5H549.066C548.778 56.5 548.546 56.372 548.37 56.116L545.634 51.82H544.434V55.9C544.434 56.06 544.378 56.204 544.266 56.332C544.154 56.444 544.01 56.5 543.834 56.5H540.882C540.722 56.5 540.578 56.444 540.45 56.332C540.338 56.204 540.282 56.06 540.282 55.9V44.62C540.282 44.444 540.338 44.3 540.45 44.188C540.578 44.076 540.722 44.02 540.882 44.02H543.834C544.01 44.02 544.154 44.076 544.266 44.188C544.378 44.3 544.434 44.444 544.434 44.62V48.532H545.682L548.202 44.404C548.378 44.148 548.602 44.02 548.874 44.02H552.09C552.25 44.02 552.378 44.068 552.474 44.164C552.586 44.26 552.642 44.38 552.642 44.524C552.642 44.588 552.602 44.7 552.522 44.86L549.282 50.092L553.074 55.684ZM558.769 56.74C557.921 56.74 557.145 56.58 556.441 56.26C555.753 55.924 555.209 55.468 554.809 54.892C554.425 54.316 554.233 53.684 554.233 52.996C554.233 51.908 554.681 51.028 555.577 50.356C556.489 49.668 557.737 49.196 559.321 48.94L562.297 48.484V48.196C562.297 47.604 562.177 47.172 561.937 46.9C561.697 46.628 561.289 46.492 560.713 46.492C560.393 46.492 560.121 46.548 559.897 46.66C559.689 46.772 559.449 46.94 559.177 47.164C558.969 47.34 558.785 47.468 558.625 47.548C558.561 47.66 558.481 47.716 558.385 47.716H555.601C555.441 47.716 555.305 47.668 555.193 47.572C555.097 47.46 555.057 47.332 555.073 47.188C555.089 46.756 555.305 46.276 555.721 45.748C556.137 45.204 556.769 44.74 557.617 44.356C558.465 43.972 559.513 43.78 560.761 43.78C562.745 43.78 564.217 44.22 565.177 45.1C566.137 45.964 566.617 47.14 566.617 48.628V55.9C566.617 56.06 566.561 56.204 566.449 56.332C566.337 56.444 566.193 56.5 566.017 56.5H563.065C562.905 56.5 562.761 56.444 562.633 56.332C562.521 56.204 562.465 56.06 562.465 55.9V55.06C562.113 55.556 561.625 55.964 561.001 56.284C560.377 56.588 559.633 56.74 558.769 56.74ZM559.969 53.908C560.673 53.908 561.241 53.676 561.673 53.212C562.121 52.748 562.345 52.076 562.345 51.196V50.908L560.353 51.244C559.009 51.5 558.337 51.98 558.337 52.684C558.337 53.052 558.489 53.348 558.793 53.572C559.113 53.796 559.505 53.908 559.969 53.908ZM569.083 58.3C568.939 58.3 568.819 58.244 568.723 58.132C568.643 58.036 568.611 57.916 568.627 57.772L569.371 52.948C569.403 52.724 569.491 52.532 569.635 52.372C569.779 52.196 569.987 52.108 570.259 52.108H573.163C573.291 52.108 573.403 52.156 573.499 52.252C573.595 52.348 573.643 52.46 573.643 52.588C573.643 52.684 573.627 52.772 573.595 52.852L571.723 57.628C571.547 58.076 571.251 58.3 570.835 58.3H569.083ZM581.616 56.5C581.456 56.5 581.312 56.444 581.184 56.332C581.072 56.204 581.016 56.06 581.016 55.9V44.62C581.016 44.444 581.072 44.3 581.184 44.188C581.312 44.076 581.456 44.02 581.616 44.02H587.304C589.176 44.02 590.568 44.332 591.48 44.956C592.408 45.58 592.872 46.46 592.872 47.596C592.872 48.156 592.76 48.636 592.536 49.036C592.312 49.42 591.992 49.756 591.576 50.044C592.104 50.316 592.512 50.692 592.8 51.172C593.104 51.636 593.256 52.18 593.256 52.804C593.256 53.972 592.792 54.884 591.864 55.54C590.936 56.18 589.536 56.5 587.664 56.5H581.616ZM587.4 48.868C588.424 48.868 588.936 48.484 588.936 47.716C588.936 47.332 588.8 47.068 588.528 46.924C588.272 46.764 587.896 46.684 587.4 46.684H585.096V48.868H587.4ZM587.448 53.836C588.488 53.836 589.008 53.476 589.008 52.756C589.008 52.356 588.88 52.068 588.624 51.892C588.368 51.716 587.976 51.628 587.448 51.628H585.096V53.836H587.448ZM601.521 56.74C599.569 56.74 598.033 56.22 596.913 55.18C595.793 54.124 595.217 52.596 595.185 50.596V49.852C595.249 47.948 595.841 46.46 596.961 45.388C598.081 44.316 599.593 43.78 601.497 43.78C602.873 43.78 604.033 44.06 604.977 44.62C605.937 45.164 606.649 45.924 607.113 46.9C607.593 47.86 607.833 48.956 607.833 50.188V50.788C607.833 50.964 607.769 51.116 607.641 51.244C607.529 51.356 607.385 51.412 607.209 51.412H599.601V51.556C599.617 52.276 599.785 52.86 600.105 53.308C600.425 53.74 600.881 53.956 601.473 53.956C601.857 53.956 602.161 53.884 602.385 53.74C602.625 53.58 602.849 53.38 603.057 53.14C603.201 52.98 603.313 52.884 603.393 52.852C603.489 52.804 603.633 52.78 603.825 52.78H606.969C607.113 52.78 607.233 52.828 607.329 52.924C607.441 53.004 607.497 53.108 607.497 53.236C607.497 53.652 607.257 54.14 606.777 54.7C606.313 55.26 605.625 55.74 604.713 56.14C603.817 56.54 602.753 56.74 601.521 56.74ZM603.417 48.964V48.916C603.417 48.148 603.249 47.556 602.913 47.14C602.577 46.708 602.105 46.492 601.497 46.492C600.889 46.492 600.417 46.708 600.081 47.14C599.761 47.556 599.601 48.148 599.601 48.916V48.964H603.417ZM615.313 56.74C613.921 56.74 612.801 56.548 611.953 56.164C611.105 55.764 610.489 55.292 610.105 54.748C609.737 54.188 609.521 53.628 609.457 53.068V53.02C609.457 52.924 609.505 52.836 609.601 52.756C609.697 52.676 609.793 52.636 609.889 52.636H612.817C612.993 52.636 613.121 52.668 613.201 52.732C613.297 52.78 613.385 52.868 613.465 52.996C613.593 53.284 613.809 53.5 614.113 53.644C614.417 53.772 614.833 53.836 615.361 53.836C615.905 53.836 616.321 53.74 616.609 53.548C616.913 53.34 617.065 53.028 617.065 52.612C617.065 52.228 616.945 51.94 616.705 51.748C616.481 51.54 616.097 51.436 615.553 51.436H614.209C614.065 51.436 613.937 51.388 613.825 51.292C613.729 51.18 613.681 51.052 613.681 50.908V49.468C613.681 49.324 613.729 49.204 613.825 49.108C613.921 48.996 614.049 48.94 614.209 48.94H615.481C615.961 48.94 616.305 48.86 616.513 48.7C616.737 48.524 616.849 48.26 616.849 47.908C616.849 47.556 616.721 47.268 616.465 47.044C616.209 46.82 615.809 46.708 615.265 46.708C614.737 46.708 614.345 46.78 614.089 46.924C613.849 47.068 613.649 47.308 613.489 47.644C613.409 47.772 613.321 47.868 613.225 47.932C613.145 47.98 613.017 48.004 612.841 48.004H610.009C609.881 48.004 609.769 47.964 609.673 47.884C609.593 47.788 609.561 47.684 609.577 47.572C609.641 46.964 609.865 46.372 610.249 45.796C610.633 45.22 611.241 44.74 612.073 44.356C612.905 43.972 613.985 43.78 615.313 43.78C617.249 43.78 618.665 44.108 619.561 44.764C620.457 45.42 620.905 46.276 620.905 47.332C620.905 48.564 620.385 49.428 619.345 49.924C620.593 50.372 621.233 51.388 621.265 52.972C621.265 54.124 620.729 55.044 619.657 55.732C618.601 56.404 617.153 56.74 615.313 56.74ZM629.365 56.74C627.413 56.74 625.877 56.22 624.757 55.18C623.637 54.124 623.061 52.596 623.029 50.596V49.852C623.093 47.948 623.685 46.46 624.805 45.388C625.925 44.316 627.437 43.78 629.341 43.78C630.717 43.78 631.877 44.06 632.821 44.62C633.781 45.164 634.493 45.924 634.957 46.9C635.437 47.86 635.677 48.956 635.677 50.188V50.788C635.677 50.964 635.613 51.116 635.485 51.244C635.373 51.356 635.229 51.412 635.053 51.412H627.445V51.556C627.461 52.276 627.629 52.86 627.949 53.308C628.269 53.74 628.725 53.956 629.317 53.956C629.701 53.956 630.005 53.884 630.229 53.74C630.469 53.58 630.693 53.38 630.901 53.14C631.045 52.98 631.157 52.884 631.237 52.852C631.333 52.804 631.477 52.78 631.669 52.78H634.813C634.957 52.78 635.077 52.828 635.173 52.924C635.285 53.004 635.341 53.108 635.341 53.236C635.341 53.652 635.101 54.14 634.621 54.7C634.157 55.26 633.469 55.74 632.557 56.14C631.661 56.54 630.597 56.74 629.365 56.74ZM631.261 48.964V48.916C631.261 48.148 631.093 47.556 630.757 47.14C630.421 46.708 629.949 46.492 629.341 46.492C628.733 46.492 628.261 46.708 627.925 47.14C627.605 47.556 627.445 48.148 627.445 48.916V48.964H631.261ZM641.621 56.5C641.445 56.5 641.293 56.444 641.165 56.332C641.053 56.22 640.997 56.076 640.997 55.9V47.284H637.421C637.245 47.284 637.093 47.228 636.965 47.116C636.853 47.004 636.797 46.86 636.797 46.684V44.62C636.797 44.444 636.853 44.3 636.965 44.188C637.093 44.076 637.245 44.02 637.421 44.02H648.749C648.925 44.02 649.069 44.076 649.181 44.188C649.293 44.3 649.349 44.444 649.349 44.62V46.684C649.349 46.844 649.293 46.988 649.181 47.116C649.069 47.228 648.925 47.284 648.749 47.284H645.149V55.9C645.149 56.06 645.093 56.204 644.981 56.332C644.869 56.444 644.725 56.5 644.549 56.5H641.621ZM656.71 56.5C656.55 56.5 656.406 56.444 656.278 56.332C656.166 56.204 656.11 56.06 656.11 55.9V44.62C656.11 44.444 656.166 44.3 656.278 44.188C656.406 44.076 656.55 44.02 656.71 44.02H662.398C664.27 44.02 665.662 44.332 666.574 44.956C667.502 45.58 667.966 46.46 667.966 47.596C667.966 48.156 667.854 48.636 667.63 49.036C667.406 49.42 667.086 49.756 666.67 50.044C667.198 50.316 667.606 50.692 667.894 51.172C668.198 51.636 668.35 52.18 668.35 52.804C668.35 53.972 667.886 54.884 666.958 55.54C666.03 56.18 664.63 56.5 662.758 56.5H656.71ZM662.494 48.868C663.518 48.868 664.03 48.484 664.03 47.716C664.03 47.332 663.894 47.068 663.622 46.924C663.366 46.764 662.99 46.684 662.494 46.684H660.19V48.868H662.494ZM662.542 53.836C663.582 53.836 664.102 53.476 664.102 52.756C664.102 52.356 663.974 52.068 663.718 51.892C663.462 51.716 663.07 51.628 662.542 51.628H660.19V53.836H662.542ZM676.567 56.74C674.743 56.74 673.263 56.26 672.127 55.3C671.007 54.324 670.407 52.972 670.327 51.244L670.303 50.284L670.327 49.3C670.391 47.572 670.991 46.22 672.127 45.244C673.263 44.268 674.743 43.78 676.567 43.78C677.959 43.78 679.127 44.028 680.071 44.524C681.015 45.02 681.719 45.612 682.183 46.3C682.647 46.972 682.895 47.588 682.927 48.148C682.943 48.324 682.887 48.476 682.759 48.604C682.631 48.716 682.479 48.772 682.303 48.772H679.087C678.911 48.772 678.775 48.732 678.679 48.652C678.583 48.572 678.495 48.444 678.415 48.268C678.239 47.82 678.007 47.492 677.719 47.284C677.447 47.076 677.095 46.972 676.663 46.972C675.431 46.972 674.791 47.788 674.743 49.42L674.719 50.332L674.743 51.124C674.759 51.956 674.927 52.572 675.247 52.972C675.567 53.356 676.039 53.548 676.663 53.548C677.127 53.548 677.487 53.452 677.743 53.26C678.015 53.052 678.239 52.716 678.415 52.252C678.495 52.076 678.583 51.948 678.679 51.868C678.775 51.788 678.911 51.748 679.087 51.748H682.303C682.463 51.748 682.607 51.804 682.735 51.916C682.863 52.028 682.927 52.164 682.927 52.324C682.927 52.82 682.703 53.42 682.255 54.124C681.823 54.812 681.127 55.42 680.167 55.948C679.207 56.476 678.007 56.74 676.567 56.74ZM690.841 56.74C688.889 56.74 687.353 56.22 686.233 55.18C685.113 54.124 684.537 52.596 684.505 50.596V49.852C684.569 47.948 685.161 46.46 686.281 45.388C687.401 44.316 688.913 43.78 690.817 43.78C692.193 43.78 693.353 44.06 694.297 44.62C695.257 45.164 695.969 45.924 696.433 46.9C696.913 47.86 697.153 48.956 697.153 50.188V50.788C697.153 50.964 697.089 51.116 696.961 51.244C696.849 51.356 696.705 51.412 696.529 51.412H688.921V51.556C688.937 52.276 689.105 52.86 689.425 53.308C689.745 53.74 690.201 53.956 690.793 53.956C691.177 53.956 691.481 53.884 691.705 53.74C691.945 53.58 692.169 53.38 692.377 53.14C692.521 52.98 692.633 52.884 692.713 52.852C692.809 52.804 692.953 52.78 693.145 52.78H696.289C696.433 52.78 696.553 52.828 696.649 52.924C696.761 53.004 696.817 53.108 696.817 53.236C696.817 53.652 696.577 54.14 696.097 54.7C695.633 55.26 694.945 55.74 694.033 56.14C693.137 56.54 692.073 56.74 690.841 56.74ZM692.737 48.964V48.916C692.737 48.148 692.569 47.556 692.233 47.14C691.897 46.708 691.425 46.492 690.817 46.492C690.209 46.492 689.737 46.708 689.401 47.14C689.081 47.556 688.921 48.148 688.921 48.916V48.964H692.737ZM699.906 56.5C699.746 56.5 699.602 56.444 699.474 56.332C699.362 56.204 699.306 56.06 699.306 55.9V44.62C699.306 44.444 699.362 44.3 699.474 44.188C699.602 44.076 699.746 44.02 699.906 44.02H708.018C708.194 44.02 708.338 44.076 708.45 44.188C708.562 44.3 708.618 44.444 708.618 44.62V46.684C708.618 46.844 708.562 46.988 708.45 47.116C708.338 47.228 708.194 47.284 708.018 47.284H703.53V55.9C703.53 56.076 703.466 56.22 703.338 56.332C703.226 56.444 703.082 56.5 702.906 56.5H699.906ZM710.199 59.14C710.023 59.14 709.871 59.084 709.743 58.972C709.631 58.86 709.575 58.716 709.575 58.54V53.836C709.575 53.66 709.631 53.516 709.743 53.404C709.871 53.292 710.023 53.236 710.199 53.236H710.439C711.015 53.236 711.415 52.82 711.639 51.988C711.863 51.14 711.975 49.828 711.975 48.052V44.62C711.975 44.444 712.031 44.3 712.143 44.188C712.271 44.076 712.423 44.02 712.599 44.02H722.199C722.375 44.02 722.519 44.076 722.631 44.188C722.743 44.3 722.799 44.444 722.799 44.62V53.212H723.807C723.983 53.212 724.127 53.276 724.239 53.404C724.367 53.516 724.431 53.66 724.431 53.836V58.54C724.431 58.716 724.367 58.86 724.239 58.972C724.127 59.084 723.983 59.14 723.807 59.14H720.807C720.647 59.14 720.503 59.084 720.375 58.972C720.263 58.86 720.207 58.716 720.207 58.54V56.5H713.799V58.54C713.799 58.716 713.743 58.86 713.631 58.972C713.519 59.084 713.375 59.14 713.199 59.14H710.199ZM718.575 53.212V47.284H715.983V48.508C715.983 50.716 715.711 52.292 715.167 53.236L718.575 53.212ZM730.027 56.74C729.179 56.74 728.403 56.58 727.699 56.26C727.011 55.924 726.467 55.468 726.067 54.892C725.683 54.316 725.491 53.684 725.491 52.996C725.491 51.908 725.939 51.028 726.835 50.356C727.747 49.668 728.995 49.196 730.579 48.94L733.555 48.484V48.196C733.555 47.604 733.435 47.172 733.195 46.9C732.955 46.628 732.547 46.492 731.971 46.492C731.651 46.492 731.379 46.548 731.155 46.66C730.947 46.772 730.707 46.94 730.435 47.164C730.227 47.34 730.043 47.468 729.883 47.548C729.819 47.66 729.739 47.716 729.643 47.716H726.859C726.699 47.716 726.563 47.668 726.451 47.572C726.355 47.46 726.315 47.332 726.331 47.188C726.347 46.756 726.563 46.276 726.979 45.748C727.395 45.204 728.027 44.74 728.875 44.356C729.723 43.972 730.771 43.78 732.019 43.78C734.003 43.78 735.475 44.22 736.435 45.1C737.395 45.964 737.875 47.14 737.875 48.628V55.9C737.875 56.06 737.819 56.204 737.707 56.332C737.595 56.444 737.451 56.5 737.275 56.5H734.323C734.163 56.5 734.019 56.444 733.891 56.332C733.779 56.204 733.723 56.06 733.723 55.9V55.06C733.371 55.556 732.883 55.964 732.259 56.284C731.635 56.588 730.891 56.74 730.027 56.74ZM731.227 53.908C731.931 53.908 732.499 53.676 732.931 53.212C733.379 52.748 733.603 52.076 733.603 51.196V50.908L731.611 51.244C730.267 51.5 729.595 51.98 729.595 52.684C729.595 53.052 729.747 53.348 730.051 53.572C730.371 53.796 730.763 53.908 731.227 53.908ZM741.205 51.076C741.029 51.076 740.877 51.02 740.749 50.908C740.637 50.78 740.581 50.628 740.581 50.452V40.3C740.581 40.124 740.637 39.98 740.749 39.868C740.877 39.756 741.029 39.7 741.205 39.7H744.109C744.285 39.7 744.429 39.756 744.541 39.868C744.669 39.98 744.733 40.124 744.733 40.3V50.452C744.733 50.628 744.669 50.78 744.541 50.908C744.429 51.02 744.285 51.076 744.109 51.076H741.205ZM741.109 56.5C740.949 56.5 740.805 56.444 740.677 56.332C740.565 56.204 740.509 56.06 740.509 55.9V52.804C740.509 52.628 740.565 52.484 740.677 52.372C740.805 52.244 740.949 52.18 741.109 52.18H744.205C744.365 52.18 744.501 52.244 744.613 52.372C744.741 52.484 744.805 52.628 744.805 52.804V55.9C744.805 56.06 744.749 56.204 744.637 56.332C744.525 56.444 744.381 56.5 744.205 56.5H741.109Z" fill="#70C05B"/>
</svg>
